<?xml version="1.0" encoding="UTF-8" standalone="no"?>
<!-- Created with Inkscape (http://www.inkscape.org/) -->

<svg
   xmlns:dc="http://purl.org/dc/elements/1.1/"
   xmlns:cc="http://creativecommons.org/ns#"
   xmlns:rdf="http://www.w3.org/1999/02/22-rdf-syntax-ns#"
   xmlns:svg="http://www.w3.org/2000/svg"
   xmlns="http://www.w3.org/2000/svg"
   xmlns:xlink="http://www.w3.org/1999/xlink"
   xmlns:sodipodi="http://sodipodi.sourceforge.net/DTD/sodipodi-0.dtd"
   xmlns:inkscape="http://www.inkscape.org/namespaces/inkscape"
   width="744.09448"
   height="1052.3622"
   id="svg2"
   version="1.1"
   inkscape:version="0.48.4 r9939"
   sodipodi:docname="penguin.svg">
  <defs
     id="defs4">
    <linearGradient
       inkscape:collect="always"
       id="linearGradient3102">
      <stop
         style="stop-color:#ffffff;stop-opacity:1;"
         offset="0"
         id="stop3104" />
      <stop
         style="stop-color:#4d4d4d;stop-opacity:1"
         offset="1"
         id="stop3106" />
    </linearGradient>
    <linearGradient
       inkscape:collect="always"
       id="linearGradient3054">
      <stop
         style="stop-color:#d45500;stop-opacity:1;"
         offset="0"
         id="stop3056" />
      <stop
         style="stop-color:#000000;stop-opacity:1"
         offset="1"
         id="stop3058" />
    </linearGradient>
    <linearGradient
       inkscape:collect="always"
       id="linearGradient4150">
      <stop
         style="stop-color:#d45500;stop-opacity:1;"
         offset="0"
         id="stop4152" />
      <stop
         style="stop-color:#000000;stop-opacity:1"
         offset="1"
         id="stop4154" />
    </linearGradient>
    <linearGradient
       inkscape:collect="always"
       id="linearGradient4062">
      <stop
         style="stop-color:#ffffff;stop-opacity:1"
         offset="0"
         id="stop4064" />
      <stop
         style="stop-color:#999999;stop-opacity:1"
         offset="1"
         id="stop4066" />
    </linearGradient>
    <linearGradient
       inkscape:collect="always"
       id="linearGradient4026">
      <stop
         style="stop-color:#ffffff;stop-opacity:1;"
         offset="0"
         id="stop4028" />
      <stop
         style="stop-color:#ffffff;stop-opacity:0;"
         offset="1"
         id="stop4030" />
    </linearGradient>
    <linearGradient
       inkscape:collect="always"
       id="linearGradient4012">
      <stop
         style="stop-color:#000000;stop-opacity:1"
         offset="0"
         id="stop4014" />
      <stop
         style="stop-color:#999999;stop-opacity:1"
         offset="1"
         id="stop4016" />
    </linearGradient>
    <filter
       inkscape:collect="always"
       id="filter3777"
       color-interpolation-filters="sRGB">
      <feGaussianBlur
         inkscape:collect="always"
         stdDeviation="10.41486"
         id="feGaussianBlur3779" />
    </filter>
    <clipPath
       clipPathUnits="userSpaceOnUse"
       id="clipPath3787">
      <path
         transform="matrix(0.80737676,0,0,0.80737676,70.242967,54.0182)"
         d="m 496.99506,280.43448 a 132.32999,132.32999 0 1 1 -264.65998,0 132.32999,132.32999 0 1 1 264.65998,0 z"
         sodipodi:ry="132.32999"
         sodipodi:rx="132.32999"
         sodipodi:cy="280.43448"
         sodipodi:cx="364.66507"
         id="path3789"
         style="fill:#ff0000;stroke:none;filter:url(#filter3777)"
         sodipodi:type="arc" />
    </clipPath>
    <filter
       inkscape:collect="always"
       id="filter3839"
       x="-0.18000001"
       width="1.36"
       y="-0.18000001"
       height="1.36"
       color-interpolation-filters="sRGB">
      <feGaussianBlur
         inkscape:collect="always"
         stdDeviation="20.00102"
         id="feGaussianBlur3841" />
    </filter>
    <clipPath
       clipPathUnits="userSpaceOnUse"
       id="clipPath3843">
      <path
         d="m 561.64482,279.42432 a 133.34013,133.34013 0 1 1 -266.68027,0 133.34013,133.34013 0 1 1 266.68027,0 z"
         sodipodi:ry="133.34013"
         sodipodi:rx="133.34013"
         sodipodi:cy="279.42432"
         sodipodi:cx="428.30469"
         id="path3845"
         style="fill:#ff0000;stroke:none;filter:url(#filter3839)"
         sodipodi:type="arc" />
    </clipPath>
    <filter
       inkscape:collect="always"
       id="filter3867"
       x="-0.18000001"
       width="1.36"
       y="-0.18000001"
       height="1.36"
       color-interpolation-filters="sRGB">
      <feGaussianBlur
         inkscape:collect="always"
         stdDeviation="28.031733"
         id="feGaussianBlur3869" />
    </filter>
    <clipPath
       clipPathUnits="userSpaceOnUse"
       id="clipPath3871">
      <path
         d="m 614.17274,314.77966 a 186.87822,186.87822 0 1 1 -373.75643,0 186.87822,186.87822 0 1 1 373.75643,0 z"
         sodipodi:ry="186.87822"
         sodipodi:rx="186.87822"
         sodipodi:cy="314.77966"
         sodipodi:cx="427.29453"
         id="path3873"
         style="fill:#ff0000;stroke:none;filter:url(#filter3867)"
         sodipodi:type="arc" />
    </clipPath>
    <filter
       inkscape:collect="always"
       id="filter3969"
       x="-0.192"
       width="1.3839999"
       y="-0.192"
       height="1.3839999"
       color-interpolation-filters="sRGB">
      <feGaussianBlur
         inkscape:collect="always"
         stdDeviation="29.900515"
         id="feGaussianBlur3971" />
    </filter>
    <clipPath
       clipPathUnits="userSpaceOnUse"
       id="clipPath3975">
      <path
         sodipodi:type="arc"
         style="fill:#ff0000;stroke:none;filter:url(#filter3969)"
         id="path3977"
         sodipodi:cx="427.29453"
         sodipodi:cy="314.77966"
         sodipodi:rx="186.87822"
         sodipodi:ry="186.87822"
         d="m 614.17274,314.77966 a 186.87822,186.87822 0 1 1 -373.75643,0 186.87822,186.87822 0 1 1 373.75643,0 z"
         clip-path="url(#clipPath3871)" />
    </clipPath>
    <clipPath
       clipPathUnits="userSpaceOnUse"
       id="clipPath3979">
      <path
         sodipodi:type="arc"
         style="fill:#ff0000;stroke:none;filter:url(#filter3969)"
         id="path3981"
         sodipodi:cx="427.29453"
         sodipodi:cy="314.77966"
         sodipodi:rx="186.87822"
         sodipodi:ry="186.87822"
         d="m 614.17274,314.77966 a 186.87822,186.87822 0 1 1 -373.75643,0 186.87822,186.87822 0 1 1 373.75643,0 z"
         clip-path="url(#clipPath3871)" />
    </clipPath>
    <filter
       inkscape:collect="always"
       id="filter3997"
       x="-0.23999999"
       width="1.48"
       y="-0.23999999"
       height="1.48"
       color-interpolation-filters="sRGB">
      <feGaussianBlur
         inkscape:collect="always"
         stdDeviation="37.375644"
         id="feGaussianBlur3999" />
    </filter>
    <clipPath
       clipPathUnits="userSpaceOnUse"
       id="clipPath4003">
      <path
         sodipodi:type="arc"
         style="fill:#ff0000;stroke:none;filter:url(#filter3997)"
         id="path4005"
         sodipodi:cx="427.29453"
         sodipodi:cy="314.77966"
         sodipodi:rx="186.87822"
         sodipodi:ry="186.87822"
         d="m 614.17274,314.77966 a 186.87822,186.87822 0 1 1 -373.75643,0 186.87822,186.87822 0 1 1 373.75643,0 z"
         clip-path="url(#clipPath3979)" />
    </clipPath>
    <linearGradient
       inkscape:collect="always"
       xlink:href="#linearGradient4012"
       id="linearGradient4018"
       x1="454.56866"
       y1="405.86456"
       x2="462.64987"
       y2="114.94061"
       gradientUnits="userSpaceOnUse" />
    <linearGradient
       inkscape:collect="always"
       xlink:href="#linearGradient4026"
       id="linearGradient4032"
       x1="417.89917"
       y1="247.21242"
       x2="687.39038"
       y2="1125.4958"
       gradientUnits="userSpaceOnUse" />
    <linearGradient
       inkscape:collect="always"
       xlink:href="#linearGradient4062"
       id="linearGradient4068"
       x1="998.0307"
       y1="454.3519"
       x2="1016.2134"
       y2="482.63614"
       gradientUnits="userSpaceOnUse" />
    <linearGradient
       inkscape:collect="always"
       xlink:href="#linearGradient4150"
       id="linearGradient4156"
       x1="289.82193"
       y1="902.85956"
       x2="337.57458"
       y2="983.67181"
       gradientUnits="userSpaceOnUse" />
    <linearGradient
       inkscape:collect="always"
       xlink:href="#linearGradient4150"
       id="linearGradient4162"
       gradientUnits="userSpaceOnUse"
       x1="260.43567"
       y1="886.69714"
       x2="449.60968"
       y2="963.46875" />
    <linearGradient
       inkscape:collect="always"
       xlink:href="#linearGradient4150"
       id="linearGradient4168"
       gradientUnits="userSpaceOnUse"
       x1="289.82193"
       y1="902.85956"
       x2="337.57458"
       y2="983.67181" />
    <linearGradient
       inkscape:collect="always"
       xlink:href="#linearGradient4150"
       id="linearGradient4170"
       gradientUnits="userSpaceOnUse"
       x1="260.43567"
       y1="886.69714"
       x2="449.60968"
       y2="963.46875" />
    <linearGradient
       inkscape:collect="always"
       xlink:href="#linearGradient3054"
       id="linearGradient3060"
       x1="361.63461"
       y1="191.71222"
       x2="387.89859"
       y2="306.8696"
       gradientUnits="userSpaceOnUse" />
    <linearGradient
       inkscape:collect="always"
       xlink:href="#linearGradient3054"
       id="linearGradient3084"
       gradientUnits="userSpaceOnUse"
       gradientTransform="translate(492.76125,171.72593)"
       x1="361.63461"
       y1="191.71222"
       x2="387.89859"
       y2="306.8696" />
    <linearGradient
       inkscape:collect="always"
       xlink:href="#linearGradient3102"
       id="linearGradient3108"
       x1="375.9451"
       y1="116.83468"
       x2="443.07812"
       y2="193.22745"
       gradientUnits="userSpaceOnUse" />
    <linearGradient
       inkscape:collect="always"
       xlink:href="#linearGradient3102"
       id="linearGradient3116"
       gradientUnits="userSpaceOnUse"
       x1="355.11069"
       y1="114.51974"
       x2="422.24374"
       y2="207.11705" />
  </defs>
  <sodipodi:namedview
     id="base"
     pagecolor="#ffffff"
     bordercolor="#666666"
     borderopacity="1.0"
     inkscape:pageopacity="0.0"
     inkscape:pageshadow="2"
     inkscape:zoom="0.49497475"
     inkscape:cx="347.08809"
     inkscape:cy="515.98912"
     inkscape:document-units="px"
     inkscape:current-layer="layer1"
     showgrid="false"
     inkscape:window-width="1024"
     inkscape:window-height="717"
     inkscape:window-x="0"
     inkscape:window-y="26"
     inkscape:window-maximized="1" />
  <metadata
     id="metadata7">
    <rdf:RDF>
      <cc:Work
         rdf:about="">
        <dc:format>image/svg+xml</dc:format>
        <dc:type
           rdf:resource="http://purl.org/dc/dcmitype/StillImage" />
        <dc:title />
      </cc:Work>
    </rdf:RDF>
  </metadata>
  <g
     inkscape:label="Layer 1"
     inkscape:groupmode="layer"
     id="layer1">
    <path
       style="fill:#000000;stroke:#000000"
       d="m 689.93419,459.40266 c 0,174.62014 -157.66056,419.21329 -322.23865,419.21329 -164.57809,0 -320.218347,-252.67439 -320.218347,-427.29453 0,-174.62014 157.660567,-172.73606 322.238657,-172.73606 164.57809,0 320.21834,6.19716 320.21834,180.8173 z"
       id="path4009"
       inkscape:connector-curvature="0"
       sodipodi:nodetypes="sssss" />
    <g
       id="g4164"
       transform="translate(-6.0608915,0)">
      <path
         transform="matrix(1.1,0,0,1,-42.022345,-18.182746)"
         d="m 359.6143,911.95099 c 0,20.642 -36.18086,37.37564 -80.81221,37.37564 -44.63134,0 -80.8122,-16.73364 -80.8122,-37.37564 0,-20.642 36.18086,-37.37565 80.8122,-37.37565 44.63135,0 80.81221,16.73365 80.81221,37.37565 z"
         sodipodi:ry="37.375645"
         sodipodi:rx="80.812202"
         sodipodi:cy="911.95099"
         sodipodi:cx="278.80209"
         id="path4148"
         style="fill:url(#linearGradient4168);fill-opacity:1;stroke:none"
         sodipodi:type="arc" />
      <path
         sodipodi:type="arc"
         style="fill:url(#linearGradient4170);fill-opacity:1;stroke:none"
         id="path4158"
         sodipodi:cx="278.80209"
         sodipodi:cy="911.95099"
         sodipodi:rx="80.812202"
         sodipodi:ry="37.375645"
         d="m 359.6143,911.95099 c 0,20.642 -36.18086,37.37564 -80.81221,37.37564 -44.63134,0 -80.8122,-16.73364 -80.8122,-37.37564 0,-20.642 36.18086,-37.37565 80.8122,-37.37565 44.63135,0 80.81221,16.73365 80.81221,37.37565 z"
         transform="matrix(1.1,0,0,1,176.17061,-18.182746)" />
    </g>
    <path
       sodipodi:type="arc"
       style="fill:url(#linearGradient4018);stroke:#ffffff;stroke-width:4;fill-opacity:1"
       id="path4007"
       sodipodi:cx="472.7514"
       sodipodi:cy="575.57019"
       sodipodi:rx="250.51784"
       sodipodi:ry="432.34528"
       d="m 723.26924,575.57019 a 250.51784,432.34528 0 1 1 -501.03567,0 250.51784,432.34528 0 1 1 501.03567,0 z"
       transform="translate(-105.05586,-113.13708)" />
    <path
       transform="matrix(0.84713171,0,0,0.73839249,-32.787161,152.6141)"
       d="m 723.26924,575.57019 a 250.51784,432.34528 0 1 1 -501.03567,0 250.51784,432.34528 0 1 1 501.03567,0 z"
       sodipodi:ry="432.34528"
       sodipodi:rx="250.51784"
       sodipodi:cy="575.57019"
       sodipodi:cx="472.7514"
       id="path4020"
       style="fill:url(#linearGradient4032);fill-opacity:1;stroke:none;stroke-width:3"
       sodipodi:type="arc" />
    <g
       id="g3092"
       transform="matrix(1.0909091,0,0,1.0909091,-32.324868,11.223215)">
      <path
         transform="translate(-12.121831,-36.365491)"
         d="m 385.87827,146.25536 c 0,30.68405 -24.87433,55.55838 -55.55838,55.55838 -30.68406,0 -55.55839,-24.87433 -55.55839,-55.55838 0,-30.68405 24.87433,-55.558392 55.55839,-55.558392 30.68405,0 55.55838,24.874342 55.55838,55.558392 z"
         sodipodi:ry="55.558388"
         sodipodi:rx="55.558388"
         sodipodi:cy="146.25536"
         sodipodi:cx="330.31989"
         id="path3088"
         style="fill:#ffffff;stroke:none"
         sodipodi:type="arc" />
      <path
         sodipodi:type="arc"
         style="fill:#ffffff;stroke:none"
         id="path3090"
         sodipodi:cx="330.31989"
         sodipodi:cy="146.25536"
         sodipodi:rx="55.558388"
         sodipodi:ry="55.558388"
         d="m 385.87827,146.25536 c 0,30.68405 -24.87433,55.55838 -55.55838,55.55838 -30.68406,0 -55.55839,-24.87433 -55.55839,-55.55838 0,-30.68405 24.87433,-55.558392 55.55839,-55.558392 30.68405,0 55.55838,24.874342 55.55838,55.558392 z"
         transform="translate(84.852812,-36.365491)" />
    </g>
    <g
       id="g3078"
       transform="matrix(0.83229596,0,0,1.1369452,62.571727,-22.569082)">
      <g
         transform="matrix(0.91272327,0,0,0.95817312,-418.76168,-146.22608)"
         id="g3071">
        <path
           style="fill:#d45500;fill-opacity:1;stroke:#000000;stroke-width:1px;stroke-linecap:butt;stroke-linejoin:miter;stroke-opacity:1"
           d="m 804.08141,325.05235 115.15738,0 c 30.81904,34.12195 -53.92701,153.30573 -64.97809,153.07031 -14.24026,1.04801 -83.85647,-140.88638 -50.17929,-153.07031 z"
           id="path3042"
           inkscape:connector-curvature="0"
           sodipodi:nodetypes="cccc" />
        <g
           id="g3068">
          <path
             style="fill:url(#linearGradient3084);fill-opacity:1;stroke:none"
             d="m 812.76713,327.17076 99.4199,0 c 20.9138,34.14534 -49.8659,131.86862 -54.7922,130.52788 -20.0222,-1.46711 -73.251,-127.35759 -44.6277,-130.52788 z"
             id="path3052"
             inkscape:connector-curvature="0"
             sodipodi:nodetypes="cccc" />
        </g>
      </g>
    </g>
    <g
       transform="matrix(0.87272727,0,0,0.87272727,47.679216,33.17888)"
       id="g3096"
       style="fill-opacity:1;fill:url(#linearGradient3108)">
      <path
         sodipodi:type="arc"
         style="fill:url(#linearGradient3116);stroke:none;fill-opacity:1"
         id="path3098"
         sodipodi:cx="330.31989"
         sodipodi:cy="146.25536"
         sodipodi:rx="55.558388"
         sodipodi:ry="55.558388"
         d="m 385.87827,146.25536 c 0,30.68405 -24.87433,55.55838 -55.55838,55.55838 -30.68406,0 -55.55839,-24.87433 -55.55839,-55.55838 0,-30.68405 24.87433,-55.558392 55.55839,-55.558392 30.68405,0 55.55838,24.874342 55.55838,55.558392 z"
         transform="translate(-12.121831,-36.365491)" />
      <path
         transform="translate(84.852812,-36.365491)"
         d="m 385.87827,146.25536 c 0,30.68405 -24.87433,55.55838 -55.55838,55.55838 -30.68406,0 -55.55839,-24.87433 -55.55839,-55.55838 0,-30.68405 24.87433,-55.558392 55.55839,-55.558392 30.68405,0 55.55838,24.874342 55.55838,55.558392 z"
         sodipodi:ry="55.558388"
         sodipodi:rx="55.558388"
         sodipodi:cy="146.25536"
         sodipodi:cx="330.31989"
         id="path3100"
         style="fill:url(#linearGradient3108);stroke:none;fill-opacity:1"
         sodipodi:type="arc" />
    </g>
    <path
       sodipodi:type="arc"
       style="fill:#000000;stroke:none"
       id="path3110"
       sodipodi:cx="332.34018"
       sodipodi:cy="130.09291"
       sodipodi:rx="15.152288"
       sodipodi:ry="23.233509"
       d="m 347.49247,130.09291 a 15.152288,23.233509 0 1 1 -30.30458,0 15.152288,23.233509 0 1 1 30.30458,0 z"
       transform="translate(-2.0203051,2.0203051)" />
    <path
       sodipodi:type="arc"
       style="fill:#000000;stroke:none"
       id="path3114"
       sodipodi:cx="332.34018"
       sodipodi:cy="130.09291"
       sodipodi:rx="15.152288"
       sodipodi:ry="23.233509"
       d="m 347.49247,130.09291 a 15.152288,23.233509 0 1 1 -30.30458,0 15.152288,23.233509 0 1 1 30.30458,0 z"
       transform="translate(72.730983,7.6167908e-8)" />
  </g>
</svg>
